<?xml version="1.0" encoding="utf-8"?>
<!-- Generator: Adobe Illustrator 15.1.0, SVG Export Plug-In . SVG Version: 6.00 Build 0)  -->
<!DOCTYPE svg PUBLIC "-//W3C//DTD SVG 1.1//EN" "http://www.w3.org/Graphics/SVG/1.1/DTD/svg11.dtd">
<svg version="1.1" id="レイヤー_1" xmlns="http://www.w3.org/2000/svg" xmlns:xlink="http://www.w3.org/1999/xlink" x="0px"
	 y="0px" width="200px" height="27px" viewBox="0 0 200 27" enable-background="new 0 0 200 27" xml:space="preserve">
<g>
	<path fill="#FFFFFF" d="M11.194,3.115c0.433-0.359,0.759-0.216,0.976,0.432c0.391,1.295,0.716,2.304,0.977,3.022
		c0.563,1.583,1.323,3.346,2.278,5.289c0.216,0.432,0.368,0.756,0.456,0.972c0.13,0.577,0.065,1.044-0.195,1.403
		c-0.348,0.216-0.629,0.108-0.846-0.323c-0.564-1.223-1.324-3.238-2.278-6.045c0.347,1.872,0.563,3.311,0.651,4.317
		c0.13,1.152,0.195,2.412,0.195,3.778c0,3.67-0.586,6.368-1.757,8.096c-1.042,1.438-2.431,2.159-4.166,2.159
		c-1.822,0-3.189-0.756-4.1-2.268c-0.999-1.582-1.497-3.67-1.497-6.261c0-1.295,0.217-2.842,0.651-4.641
		c0.651-2.375,1.779-4.965,3.384-7.772c-0.868,0.289-1.757,0.54-2.668,0.756c-0.651,0.145-1.15,0.216-1.497,0.216
		c-0.391,0-0.586-0.324-0.586-0.972c0-0.647,0.195-0.971,0.586-0.971c0.737,0,1.388-0.036,1.953-0.108
		c0.954-0.144,1.757-0.324,2.408-0.54c0.391-0.143,0.672,0,0.846,0.432c0.217,0.504,0.217,1.009,0,1.511
		c-1.476,2.664-2.538,5.074-3.189,7.232c-0.478,1.799-0.716,3.492-0.716,5.074c0,1.872,0.39,3.454,1.171,4.749
		c0.824,1.295,1.909,1.943,3.254,1.943c1.605,0,2.841-0.791,3.71-2.375c0.737-1.582,1.106-3.706,1.106-6.369
		c0-2.302-0.109-4.245-0.326-5.829c-0.26-1.654-0.629-3.381-1.106-5.181C10.651,4.051,10.76,3.476,11.194,3.115z M13.082,2.467
		c0.173-0.143,0.347-0.071,0.521,0.216c0.477,0.792,0.933,1.799,1.367,3.022c0.13,0.432,0.086,0.793-0.13,1.08
		c-0.26,0.145-0.456,0.037-0.585-0.324c-0.261-0.791-0.673-1.835-1.237-3.13C12.887,2.971,12.908,2.683,13.082,2.467z M14.644,1.388
		c0.173-0.144,0.347-0.071,0.521,0.216c0.477,0.792,0.933,1.799,1.367,3.022c0.042,0.432,0,0.755-0.13,0.971
		c-0.217,0.216-0.413,0.145-0.585-0.216c-0.261-0.791-0.673-1.835-1.237-3.13C14.449,1.892,14.47,1.604,14.644,1.388z"/>
	<path fill="#FFFFFF" d="M23.495,3.007c0.173-0.432,0.433-0.575,0.781-0.432c0.347,0.289,0.456,0.72,0.325,1.295
		c-0.564,1.872-1.15,3.851-1.757,5.937c-0.521,1.583-1.064,3.419-1.627,5.505c0.868-1.366,1.648-2.375,2.343-3.022
		c0.563-0.575,1.127-0.864,1.692-0.864c0.694,0,1.237,0.361,1.627,1.08c0.347,0.647,0.521,1.548,0.521,2.698
		c0,1.009-0.109,2.628-0.326,4.857c-0.043,0.361-0.065,0.756-0.065,1.188c0,1.079,0.195,1.835,0.586,2.267
		c0.216,0.216,0.498,0.324,0.846,0.324c0.693,0,1.323-0.791,1.887-2.375c0.521-1.654,0.868-3.741,1.042-6.261
		c0.042-0.647,0.26-0.935,0.651-0.863c0.303,0.072,0.456,0.396,0.456,0.972c-0.088,1.942-0.326,3.814-0.716,5.612
		c-0.434,1.728-0.911,2.952-1.432,3.671c-0.564,0.718-1.215,1.079-1.953,1.079c-0.564,0-1.106-0.288-1.627-0.863
		c-0.564-0.864-0.846-1.979-0.846-3.347c0-0.432,0.021-0.898,0.065-1.403c0.173-2.014,0.26-3.417,0.26-4.21
		c0-1.727-0.413-2.59-1.237-2.59c-0.738,0-1.562,0.685-2.473,2.051c-0.825,1.151-1.627,2.914-2.408,5.289
		c-0.348,1.225-0.694,2.555-1.041,3.994c-0.174,0.718-0.478,0.971-0.911,0.755c-0.348-0.36-0.456-0.863-0.326-1.511l0.521-2.051
		c1.171-4.677,2.343-8.995,3.514-12.954C22.389,6.965,22.931,5.022,23.495,3.007z"/>
	<path fill="#FFFFFF" d="M43.085,12.182c0.39,0.648,0.585,1.403,0.585,2.267c0,0.864-0.195,1.619-0.585,2.268
		c-0.435,0.72-0.911,1.079-1.432,1.079c-0.521,0-0.999-0.359-1.432-1.079c-0.391-0.648-0.586-1.403-0.586-2.268
		c0-0.863,0.195-1.619,0.586-2.267c0.433-0.718,0.911-1.079,1.432-1.079C42.174,11.103,42.65,11.463,43.085,12.182z"/>
	<path fill="#FFFFFF" d="M55.711,3.007c0.086-0.648,0.325-0.899,0.716-0.756c0.347,0.145,0.498,0.469,0.456,0.972
		c-0.174,1.152-0.369,2.304-0.586,3.454c1.128-0.216,1.844-0.324,2.148-0.324c0.998,0,1.8,0.504,2.408,1.511
		c0.737,1.295,1.106,3.562,1.106,6.801c0,2.879-0.217,5.361-0.65,7.447c-0.521,2.375-1.432,3.525-2.734,3.454
		c-0.521,0-1.106-0.216-1.757-0.647c-0.651-0.432-1.215-0.972-1.692-1.619c-0.218-0.286-0.26-0.61-0.13-0.972
		c0.086-0.286,0.261-0.358,0.521-0.216c1.084,1.009,2.039,1.549,2.863,1.619c0.737,0,1.323-0.718,1.757-2.158
		c0.434-1.439,0.651-3.67,0.651-6.692c0-2.807-0.195-4.642-0.585-5.505c-0.435-0.935-1.02-1.403-1.757-1.403
		c-0.738,0.072-1.541,0.253-2.408,0.54c-0.825,4.534-1.497,7.736-2.018,9.607c-0.564,2.304-1.171,4.425-1.822,6.368
		c-0.26,0.575-0.564,0.719-0.911,0.432c-0.304-0.432-0.369-0.935-0.195-1.511c0.693-1.798,1.344-3.849,1.953-6.153
		c0.607-2.302,1.214-5.108,1.822-8.419c-0.955,0.145-1.931,0.289-2.929,0.432c-0.435,0-0.673-0.287-0.716-0.864
		c0-0.647,0.216-1.007,0.65-1.08c1.042-0.071,2.125-0.216,3.254-0.432C55.342,5.597,55.537,4.302,55.711,3.007z M62.089,4.518
		c0.217-0.287,0.477-0.287,0.781,0c0.781,1.368,1.497,3.167,2.147,5.397c0.477,1.8,0.759,3.599,0.846,5.397
		c0,0.72-0.195,1.116-0.586,1.188c-0.39,0.072-0.629-0.252-0.716-0.972c-0.087-1.512-0.348-3.238-0.781-5.182
		c-0.391-1.654-0.955-3.201-1.692-4.642C61.915,5.273,61.915,4.879,62.089,4.518z"/>
	<path fill="#FFFFFF" d="M73.479,3.007c0.173-0.432,0.433-0.575,0.781-0.432c0.347,0.289,0.456,0.72,0.325,1.295
		c-0.564,1.872-1.15,3.851-1.757,5.937c-0.521,1.583-1.064,3.419-1.627,5.505c0.868-1.366,1.648-2.375,2.343-3.022
		c0.563-0.575,1.127-0.864,1.692-0.864c0.694,0,1.237,0.361,1.627,1.08c0.347,0.647,0.521,1.548,0.521,2.698
		c0,1.009-0.109,2.628-0.326,4.857c-0.043,0.361-0.065,0.756-0.065,1.188c0,1.079,0.195,1.835,0.586,2.267
		c0.216,0.216,0.498,0.324,0.846,0.324c0.693,0,1.323-0.791,1.887-2.375c0.521-1.654,0.868-3.741,1.042-6.261
		c0.042-0.647,0.26-0.935,0.651-0.863c0.303,0.072,0.456,0.396,0.456,0.972c-0.088,1.942-0.326,3.814-0.716,5.612
		c-0.434,1.728-0.911,2.952-1.432,3.671c-0.564,0.718-1.215,1.079-1.953,1.079c-0.564,0-1.106-0.288-1.627-0.863
		c-0.564-0.864-0.846-1.979-0.846-3.347c0-0.432,0.021-0.898,0.065-1.403c0.173-2.014,0.26-3.417,0.26-4.21
		c0-1.727-0.413-2.59-1.237-2.59c-0.738,0-1.562,0.685-2.473,2.051c-0.825,1.151-1.627,2.914-2.408,5.289
		c-0.348,1.225-0.694,2.555-1.041,3.994c-0.174,0.718-0.478,0.971-0.911,0.755c-0.348-0.36-0.456-0.863-0.326-1.511l0.521-2.051
		c1.171-4.677,2.343-8.995,3.514-12.954C72.372,6.965,72.914,5.022,73.479,3.007z"/>
	<path fill="#FFFFFF" d="M93.068,12.182c0.39,0.648,0.585,1.403,0.585,2.267c0,0.864-0.195,1.619-0.585,2.268
		c-0.435,0.72-0.911,1.079-1.432,1.079c-0.521,0-0.999-0.359-1.432-1.079c-0.391-0.648-0.586-1.403-0.586-2.268
		c0-0.863,0.195-1.619,0.586-2.267c0.433-0.718,0.911-1.079,1.432-1.079C92.157,11.103,92.634,11.463,93.068,12.182z"/>
	<path fill="#FFFFFF" d="M106.67,5.166c0.563,0,1.128,0.72,1.692,2.159c1.172,2.736,2.43,5.397,3.775,7.988
		c1.084,2.088,2.147,4.03,3.188,5.829c0.261,0.647,0.261,1.187,0,1.619c-0.304,0.432-0.629,0.432-0.976,0
		c-0.738-1.366-1.715-3.274-2.929-5.722c-1.476-3.022-2.843-5.937-4.101-8.743c-0.174-0.359-0.348-0.54-0.521-0.54
		c-0.174,0-0.348,0.216-0.521,0.647c-0.738,2.52-1.367,4.463-1.888,5.829c-0.651,1.728-1.346,3.275-2.083,4.642
		c-0.348,0.505-0.673,0.54-0.976,0.108c-0.261-0.432-0.283-0.935-0.065-1.512c0.867-1.727,1.562-3.273,2.083-4.641
		c0.693-1.871,1.301-3.67,1.822-5.397C105.606,5.921,106.106,5.166,106.67,5.166z M114.676,8.728
		c-0.348,0.577-0.781,0.864-1.302,0.864s-0.955-0.287-1.302-0.864c-0.348-0.575-0.521-1.295-0.521-2.159s0.173-1.582,0.521-2.159
		c0.347-0.575,0.781-0.864,1.302-0.864s0.954,0.289,1.302,0.864c0.347,0.577,0.521,1.295,0.521,2.159S115.022,8.152,114.676,8.728z
		 M114.351,4.95c-0.261-0.432-0.586-0.647-0.977-0.647s-0.716,0.216-0.977,0.647c-0.26,0.432-0.391,0.972-0.391,1.619
		s0.131,1.188,0.391,1.619c0.261,0.432,0.586,0.647,0.977,0.647s0.716-0.216,0.977-0.647c0.26-0.432,0.39-0.972,0.39-1.619
		S114.61,5.381,114.351,4.95z"/>
	<path fill="#FFFFFF" d="M120.013,10.455c0.303-0.143,0.542,0,0.716,0.432c0.521,1.44,0.953,3.13,1.302,5.073
		c0.086,0.647-0.022,1.079-0.326,1.295c-0.391,0.146-0.629-0.07-0.716-0.647c-0.26-1.438-0.65-3.093-1.171-4.965
		C119.687,11.14,119.752,10.743,120.013,10.455z M129.774,9.591c0.347,0.072,0.499,0.432,0.456,1.08
		c-0.391,5.326-1.259,9.104-2.604,11.334c-1.432,2.375-3.579,3.813-6.443,4.317c-0.348,0-0.543-0.216-0.586-0.647
		c-0.043-0.504,0.065-0.828,0.326-0.972c2.689-0.575,4.642-1.87,5.857-3.886c1.214-2.014,1.995-5.468,2.343-10.363
		C129.167,9.807,129.384,9.521,129.774,9.591z M123.722,9.375c0.261-0.144,0.478-0.036,0.651,0.324
		c0.781,1.727,1.323,3.491,1.627,5.289c0.086,0.647-0.022,1.079-0.325,1.296c-0.348,0.072-0.586-0.108-0.716-0.54
		c-0.391-1.943-0.869-3.706-1.433-5.29C123.396,9.952,123.462,9.591,123.722,9.375z"/>
	<path fill="#FFFFFF" d="M139.017,2.359c0.391,0,0.586,0.361,0.586,1.08v7.124c2.082,0.648,3.752,1.295,5.011,1.943
		c1.084,0.504,2.083,1.079,2.994,1.727c0.391,0.361,0.521,0.901,0.391,1.619c-0.174,0.577-0.479,0.756-0.911,0.54
		c-2.431-1.798-4.925-3.13-7.484-3.994v12.845c0,0.719-0.195,1.079-0.586,1.079s-0.586-0.36-0.586-1.079V3.438
		C138.431,2.72,138.626,2.359,139.017,2.359z"/>
	<path fill="#FFFFFF" d="M154.571,11.21c0.433,0.145,0.606,0.577,0.521,1.295c-0.608,3.958-1.52,7.521-2.733,10.687
		c-0.218,0.576-0.521,0.792-0.911,0.647c-0.261-0.287-0.325-0.719-0.195-1.296c1.172-3.381,2.018-6.871,2.538-10.47
		C153.92,11.426,154.181,11.14,154.571,11.21z M157.76,6.569v-3.13c0-0.718,0.195-1.08,0.586-1.08s0.586,0.361,0.586,1.08v3.13
		h5.923c0.433,0,0.65,0.324,0.65,0.972c0,0.647-0.218,0.971-0.65,0.971h-5.923v16.516c0,0.718-0.195,1.079-0.586,1.079
		s-0.586-0.361-0.586-1.079V8.512h-5.857c-0.434,0-0.65-0.324-0.65-0.971c0-0.648,0.217-0.972,0.65-0.972H157.76z M161.665,11.21
		c0.261-0.216,0.521-0.071,0.781,0.432c1.258,2.879,2.277,6.369,3.059,10.47c0.087,0.793-0.087,1.296-0.521,1.512
		c-0.435,0.145-0.738-0.144-0.911-0.863c-0.738-4.103-1.605-7.592-2.604-10.471C161.34,11.787,161.405,11.426,161.665,11.21z
		 M161.99,2.359c-0.087-0.287-0.064-0.575,0.065-0.863c0.217-0.144,0.391-0.108,0.521,0.108c0.434,0.863,0.824,1.908,1.172,3.13
		c0.13,0.432,0.086,0.792-0.13,1.08c-0.261,0.145-0.456,0-0.586-0.432C162.771,4.447,162.424,3.438,161.99,2.359z M163.813,1.927
		c-0.087-0.359-0.064-0.61,0.065-0.755c0.217-0.216,0.412-0.179,0.586,0.108c0.477,1.079,0.846,2.088,1.106,3.022
		c0.13,0.432,0.086,0.792-0.13,1.079c-0.261,0.145-0.456,0-0.586-0.432C164.55,3.943,164.203,2.936,163.813,1.927z"/>
	<path fill="#FFFFFF" d="M172.339,2.359c0.391,0,0.586,0.361,0.586,1.08v7.124c2.082,0.648,3.752,1.295,5.011,1.943
		c1.084,0.504,2.083,1.079,2.994,1.727c0.391,0.361,0.521,0.901,0.391,1.619c-0.174,0.577-0.479,0.756-0.911,0.54
		c-2.431-1.798-4.925-3.13-7.484-3.994v12.845c0,0.719-0.195,1.079-0.586,1.079s-0.586-0.36-0.586-1.079V3.438
		C171.753,2.72,171.948,2.359,172.339,2.359z"/>
	<path fill="#FFFFFF" d="M187.828,4.194c0.391,0,0.586,0.324,0.586,0.971v6.153c0,5.613-1.085,10.219-3.254,13.816
		c-0.218,0.359-0.479,0.395-0.781,0.108c-0.218-0.432-0.218-0.863,0-1.296c1.909-3.381,2.863-7.556,2.863-12.521V5.166
		C187.242,4.518,187.438,4.194,187.828,4.194z M191.538,4.626c0-0.719,0.195-1.08,0.586-1.08s0.586,0.361,0.586,1.08v17.271
		c0,0.793,0.237,1.188,0.716,1.188c0.693,0,1.518-0.791,2.473-2.375c1.042-1.727,1.778-3.956,2.213-6.692
		c0.087-0.502,0.303-0.718,0.651-0.647c0.347,0.145,0.477,0.54,0.39,1.188c-0.434,3.022-1.28,5.577-2.538,7.664
		c-1.302,2.159-2.538,3.238-3.709,3.238c-0.912,0-1.367-0.863-1.367-2.591V4.626z"/>
</g>
</svg>
