<?xml version="1.0" encoding="utf-8"?>
<!-- Generator: Adobe Illustrator 15.1.0, SVG Export Plug-In . SVG Version: 6.00 Build 0)  -->
<!DOCTYPE svg PUBLIC "-//W3C//DTD SVG 1.1//EN" "http://www.w3.org/Graphics/SVG/1.1/DTD/svg11.dtd">
<svg version="1.1" id="レイヤー_1" xmlns="http://www.w3.org/2000/svg" xmlns:xlink="http://www.w3.org/1999/xlink" x="0px"
	 y="0px" width="200px" height="27px" viewBox="0 0 200 27" enable-background="new 0 0 200 27" xml:space="preserve">
<g>
	<path fill="#FFFFFF" d="M51.818,2.036c0.575,0,0.863,0.253,0.863,0.755c0,0.504-0.288,0.756-0.863,0.756H43.29
		c-0.577,1.368-1.187,2.628-1.835,3.778V24.38c0,0.719-0.324,1.079-0.971,1.079c-0.648,0-0.972-0.36-0.972-1.079V9.916
		c-3.167,3.67-6.441,6.19-9.823,7.556c-0.793,0.288-1.295,0.107-1.511-0.54c-0.073-0.432,0.144-0.756,0.647-0.972
		c5.613-2.733,9.715-6.871,12.306-12.413H28.934c-0.577,0-0.863-0.251-0.863-0.756c0-0.502,0.287-0.755,0.863-0.755H51.818z
		 M42.966,8.836c0.432-0.502,0.972-0.502,1.619,0c2.591,2.016,5.217,4.354,7.88,7.017c0.502,0.576,0.54,1.116,0.108,1.619
		c-0.504,0.504-1.116,0.432-1.835-0.216c-2.736-2.807-5.218-5.145-7.448-7.017C42.786,9.808,42.678,9.34,42.966,8.836z"/>
	<path fill="#FFFFFF" d="M83.876,5.49c0.287,0,0.467,0.145,0.54,0.432c0.359,1.511,0.575,3.167,0.647,4.965
		c0,1.009-0.037,1.835-0.108,2.483c-0.073,0.576-0.361,0.863-0.864,0.863c-0.432-0.071-0.647-0.395-0.647-0.972
		c0.071-0.791,0.108-1.582,0.108-2.375c-0.072-1.798-0.145-3.417-0.216-4.857C83.337,5.743,83.516,5.563,83.876,5.49z M87.331,1.064
		c0.503,0,0.756,0.289,0.756,0.864v6.261c0.718-0.719,1.295-1.547,1.727-2.483c0.216-0.647,0.575-0.934,1.08-0.863
		c0.502,0.145,0.683,0.54,0.54,1.187c-0.577,1.511-1.692,2.699-3.346,3.563c0,1.583-0.108,3.815-0.324,6.692
		c1.15,1.225,2.375,2.807,3.67,4.749c0.144-0.286,0.251-0.683,0.324-1.187c0-0.503,0.179-0.756,0.54-0.756
		c0.432,0,0.647,0.288,0.647,0.863c0,1.872-0.72,3.598-2.159,5.182c-0.577,0.432-1.044,0.432-1.403,0
		c-0.289-0.361-0.216-0.793,0.216-1.296c0.359-0.36,0.647-0.72,0.863-1.079c-0.936-1.87-1.907-3.454-2.914-4.75
		c-0.504,2.375-1.225,4.355-2.159,5.938c-0.361,0.719-0.828,0.935-1.403,0.647c-0.361-0.361-0.324-0.9,0.108-1.619
		c0.648-1.15,1.223-2.698,1.727-4.642c0.503-2.302,0.756-4.642,0.756-7.016V1.928C86.575,1.353,86.827,1.064,87.331,1.064z
		 M93.375,0.632c0.503,0,0.756,0.253,0.756,0.756c0,0.216,0,0.504,0,0.863h2.806c0.432,0,0.827,0.181,1.188,0.54
		c0.359,0.361,0.54,0.756,0.54,1.188l-0.216,1.727h3.13V1.712c0-0.575,0.251-0.864,0.756-0.864c0.503,0,0.756,0.289,0.756,0.864
		v3.994h4.209c0.503,0,0.756,0.216,0.756,0.648c0,0.432-0.253,0.647-0.756,0.647h-4.102c0.575,3.527,2.087,6.585,4.534,9.175
		c0.791,0.793,0.898,1.44,0.323,1.943c-0.504,0.432-1.079,0.288-1.727-0.432c-1.584-2.014-2.844-4.497-3.778-7.448
		c-1.009,3.238-2.591,5.937-4.75,8.096c-0.504,0.577-0.972,0.647-1.403,0.216c-0.361-0.359-0.289-0.791,0.216-1.295
		c2.95-3.238,4.569-6.656,4.857-10.255h-3.238c-0.361,2.159-1.044,4.174-2.051,6.045c-1.009,1.872-2.339,3.563-3.994,5.073
		c-0.432,0.288-0.792,0.288-1.079,0c-0.216-0.287-0.145-0.61,0.216-0.972c1.295-1.295,2.41-2.698,3.346-4.209l-2.375-2.267
		c-0.289,0.72-0.577,1.333-0.864,1.835c-0.289,0.577-0.647,0.756-1.08,0.54c-0.361-0.216-0.361-0.648,0-1.295
		c1.582-3.741,2.338-7.124,2.267-10.146C92.62,0.956,92.871,0.632,93.375,0.632z M92.728,9.484l2.59,2.159
		c0.287-0.647,0.575-1.438,0.864-2.375l-2.807-1.943L92.728,9.484z M93.699,5.813l2.915,1.943c0.287-1.295,0.467-2.446,0.54-3.455
		c0-0.502-0.181-0.755-0.54-0.755h-2.59L93.699,5.813z M95.966,19.307c0.432-0.071,0.718,0.216,0.863,0.863
		c0.216,1.296,0.251,2.628,0.108,3.994c-0.072,0.719-0.396,1.042-0.971,0.972c-0.504,0-0.72-0.361-0.648-1.08
		c0.144-1.223,0.179-2.518,0.108-3.886C95.426,19.667,95.605,19.379,95.966,19.307z M99.528,19.198
		c0.359-0.143,0.683,0.037,0.972,0.54c0.647,1.44,1.114,2.698,1.403,3.778c0.216,0.934-0.037,1.438-0.756,1.511
		c-0.577,0-0.9-0.288-0.972-0.863c-0.145-1.152-0.432-2.445-0.863-3.886C99.097,19.703,99.167,19.344,99.528,19.198z
		 M103.954,19.522c0.286-0.287,0.683-0.216,1.188,0.216c1.295,1.225,2.158,2.556,2.591,3.994c0.286,0.863,0.143,1.366-0.433,1.511
		c-0.576,0.144-1.008-0.145-1.295-0.863c-0.504-1.438-1.152-2.661-1.943-3.67C103.701,20.135,103.666,19.738,103.954,19.522z
		 M104.386,1.604c0.287-0.216,0.61-0.179,0.972,0.108c0.647,0.647,1.114,1.368,1.403,2.159c0.216,0.648,0.07,1.044-0.432,1.188
		c-0.433,0.072-0.721-0.071-0.864-0.432c-0.288-0.719-0.647-1.439-1.079-2.159C104.17,2.108,104.17,1.82,104.386,1.604z"/>
	<path fill="#FFFFFF" d="M142.922,1.496c0-0.575,0.251-0.864,0.756-0.864c0.502,0,0.755,0.289,0.755,0.864v4.209h2.267
		c0.575,0,0.864,0.253,0.864,0.756c0,0.504-0.289,0.755-0.864,0.755h-2.267v8.312c0.719-0.286,1.547-0.647,2.483-1.079
		c0.502-0.287,0.898-0.287,1.187,0c0.359,0.504,0.144,0.972-0.647,1.403c-0.863,0.504-1.872,0.972-3.022,1.403v7.34
		c0,0.575-0.253,0.863-0.755,0.863c-0.505,0-0.756-0.288-0.756-0.863v-6.801c-0.863,0.361-1.8,0.686-2.807,0.972
		c-0.937,0.289-1.476,0.108-1.619-0.539c-0.146-0.648,0.251-1.043,1.188-1.188c1.007-0.216,2.086-0.54,3.238-0.972V7.217h-2.051
		c-0.216,1.584-0.505,2.952-0.864,4.102c-0.216,0.647-0.576,0.936-1.079,0.863c-0.432-0.071-0.54-0.54-0.324-1.403
		c0.433-1.943,0.719-4.209,0.864-6.8c0-0.863,0.286-1.295,0.863-1.295c0.647,0,0.935,0.469,0.863,1.403l-0.216,1.619h1.943V1.496z
		 M151.018,0.74c0.575,0.073,0.826,0.504,0.756,1.295c-0.146,0.936-0.361,1.908-0.648,2.915h9.931c0.433,0,0.827,0.18,1.188,0.54
		c0.359,0.361,0.54,0.756,0.54,1.188v13.169c0,3.454-1.26,5.181-3.778,5.181c-1.295,0-2.411-0.107-3.346-0.323
		c-0.577-0.146-0.863-0.396-0.863-0.756c0-0.647,0.432-0.9,1.295-0.756c0.935,0.216,1.763,0.324,2.482,0.324
		c1.798,0,2.699-1.296,2.699-3.887V7.325c0-0.575-0.289-0.863-0.864-0.863h-1.619c-0.504,6.549-2.304,12.089-5.396,16.624
		c-0.433,0.647-0.864,0.826-1.296,0.539c-0.36-0.288-0.323-0.719,0.108-1.295c3.022-5.109,4.677-10.398,4.965-15.868h-2.914
		c-0.577,5.542-2.412,10.579-5.505,15.112c-0.433,0.577-0.864,0.721-1.296,0.432c-0.36-0.286-0.36-0.683,0-1.188
		c2.878-4.677,4.604-9.461,5.182-14.356h-1.943c-0.504,1.511-1.26,2.915-2.267,4.209c-0.361,0.432-0.72,0.577-1.079,0.432
		c-0.432-0.216-0.432-0.648,0-1.295c1.295-2.086,2.158-4.75,2.59-7.988C150.081,1.029,150.44,0.669,151.018,0.74z"/>
</g>
</svg>
