<?xml version="1.0" encoding="utf-8"?>
<!-- Generator: Adobe Illustrator 15.1.0, SVG Export Plug-In . SVG Version: 6.00 Build 0)  -->
<!DOCTYPE svg PUBLIC "-//W3C//DTD SVG 1.1//EN" "http://www.w3.org/Graphics/SVG/1.1/DTD/svg11.dtd">
<svg version="1.1" id="レイヤー_1" xmlns="http://www.w3.org/2000/svg" xmlns:xlink="http://www.w3.org/1999/xlink" x="0px"
	 y="0px" width="200px" height="27px" viewBox="0 0 200 27" enable-background="new 0 0 200 27" xml:space="preserve">
<g>
	<path fill="#FFFFFF" d="M9.815,1.909c0.502,0.289,0.61,0.72,0.324,1.295c-0.793,1.44-1.835,3.022-3.13,4.75l2.267,2.051
		c1.15-1.438,2.159-2.915,3.022-4.426c0.287-0.502,0.683-0.683,1.188-0.54c0.502,0.289,0.575,0.756,0.216,1.403
		c-1.511,2.447-3.454,4.93-5.829,7.448c2.086-0.071,3.778-0.216,5.073-0.432c-0.145-0.502-0.396-1.15-0.755-1.943
		c-0.145-0.432-0.037-0.755,0.324-0.971c0.432-0.144,0.791,0.037,1.08,0.54c0.934,1.727,1.511,3.167,1.727,4.318
		c0.071,0.647-0.145,1.009-0.647,1.079c-0.504,0.072-0.828-0.144-0.972-0.647l-0.324-1.079l-3.454,0.432v10.578
		c0,0.575-0.253,0.863-0.756,0.863c-0.504,0-0.755-0.288-0.755-0.863V15.187l-3.778,0.216c-0.504,0.072-0.755-0.179-0.755-0.756
		c0-0.503,0.251-0.755,0.755-0.755h1.511l2.051-2.483c-0.863-1.08-2.123-2.194-3.778-3.346c-0.432-0.287-0.577-0.647-0.432-1.08
		C4.272,6.551,4.704,6.48,5.281,6.767l0.54,0.324C6.685,6.011,7.583,4.464,8.52,2.449C8.878,1.874,9.311,1.693,9.815,1.909z
		 M5.929,17.237c0.432,0,0.647,0.253,0.647,0.756c0,2.951-0.288,5.181-0.863,6.692c-0.216,0.502-0.54,0.718-0.972,0.647
		c-0.432-0.146-0.577-0.469-0.432-0.972c0.575-1.943,0.864-4.064,0.864-6.368C5.173,17.49,5.424,17.237,5.929,17.237z
		 M12.189,17.129c0.432-0.07,0.755,0.146,0.972,0.648c0.791,2.59,1.15,4.462,1.079,5.612c0,0.647-0.288,0.972-0.863,0.972
		c-0.504-0.072-0.756-0.359-0.756-0.863c-0.072-1.798-0.361-3.633-0.863-5.505C11.685,17.561,11.829,17.274,12.189,17.129z
		 M27.841,2.881c0.071,0.577-0.289,0.936-1.08,1.079l-3.022,0.648l0.216,6.692h3.994c0.575,0,0.863,0.253,0.863,0.755
		c0,0.504-0.288,0.756-0.863,0.756h-3.778c0.144,2.088,0.467,4.21,0.972,6.368c0.287,1.296,0.647,2.521,1.08,3.671
		c0.216,0.792,0.395,0.936,0.54,0.432c0.071-0.432,0.216-1.547,0.432-3.347c0.071-0.502,0.324-0.756,0.756-0.756
		c0.502,0.073,0.718,0.433,0.647,1.08c-0.216,2.304-0.469,3.886-0.755,4.749c-0.289,0.791-0.685,1.188-1.188,1.188
		c-0.577,0-1.117-0.54-1.619-1.619c-1.225-2.733-2.088-6.655-2.591-11.766h-4.317v10.902c1.15-0.432,2.337-0.935,3.562-1.512
		c0.502-0.216,0.863-0.179,1.08,0.108c0.143,0.288,0.071,0.577-0.216,0.863c-1.727,1.15-3.85,2.194-6.369,3.131
		c-0.72,0.143-1.152-0.073-1.295-0.648c-0.073-0.432,0.108-0.755,0.54-0.971l1.188-0.432V5.363c0-0.863,0.395-1.403,1.187-1.619
		c3.455-0.216,6.404-0.718,8.852-1.511C27.301,2.09,27.696,2.306,27.841,2.881z M18.666,5.04c-0.361,0-0.54,0.216-0.54,0.648V11.3
		h4.102l-0.216-6.477L18.666,5.04z"/>
	<path fill="#FFFFFF" d="M64.757,3.097c0-0.575,0.251-0.864,0.756-0.864c0.502,0,0.755,0.289,0.755,0.864v4.426h4.318
		c0.575,0,0.863,0.253,0.863,0.755c0,0.504-0.288,0.756-0.863,0.756h-4.318v0.324c1.943,1.152,3.49,2.159,4.642,3.022
		c0.575,0.504,0.683,1.008,0.324,1.511c-0.432,0.289-0.863,0.215-1.295-0.216c-1.08-1.079-2.304-2.086-3.67-3.022v2.482
		c0,0.577-0.253,0.864-0.755,0.864c-0.504,0-0.756-0.287-0.756-0.864v-2.051c-1.079,1.225-2.412,2.304-3.994,3.238
		c-0.648,0.361-1.117,0.361-1.403,0c-0.289-0.431-0.216-0.791,0.216-1.079c2.375-1.366,4.102-2.77,5.181-4.209h-4.425
		c-0.577,0-0.864-0.251-0.864-0.756c0-0.502,0.287-0.755,0.864-0.755h4.425V3.097z M64.757,15.941c0-0.574,0.251-0.863,0.756-0.863
		c0.502,0,0.755,0.289,0.755,0.863v1.512h4.534c0.575,0,0.864,0.253,0.864,0.756c0,0.504-0.289,0.755-0.864,0.755h-4.534
		l-0.108,0.864c1.582,0.936,2.985,1.979,4.21,3.13c0.647,0.647,0.755,1.223,0.324,1.728c-0.432,0.359-0.936,0.251-1.511-0.324
		c-1.225-1.366-2.375-2.41-3.454-3.13c-0.72,1.799-2.412,3.346-5.073,4.642c-0.648,0.286-1.08,0.216-1.295-0.217
		c-0.216-0.432,0-0.792,0.647-1.079c2.95-1.438,4.461-3.309,4.534-5.613h-4.318c-0.577,0-0.863-0.251-0.863-0.755
		c0-0.503,0.287-0.756,0.863-0.756h4.534V15.941z M60.656,3.097c0.359-0.216,0.718-0.108,1.079,0.324
		c0.503,0.577,0.935,1.295,1.295,2.159c0.216,0.648,0.144,1.044-0.216,1.188c-0.504,0.289-0.9,0.108-1.188-0.54
		c-0.288-0.719-0.647-1.403-1.079-2.051C60.259,3.673,60.295,3.313,60.656,3.097z M69.291,3.636c0.287-0.575,0.648-0.791,1.08-0.647
		c0.502,0.288,0.54,0.863,0.108,1.727c-0.361,0.72-0.793,1.403-1.295,2.051c-0.432,0.432-0.792,0.54-1.08,0.324
		c-0.361-0.216-0.361-0.647,0-1.295C68.536,5.077,68.93,4.356,69.291,3.636z M76.199,23.066c0.359,0.504,0.251,1.008-0.324,1.511
		c-1.295,0.935-2.698,1.619-4.209,2.051c-0.72,0.144-1.117-0.037-1.188-0.539c-0.073-0.361,0.143-0.648,0.647-0.864
		c1.439-0.504,2.699-1.223,3.778-2.158C75.479,22.707,75.911,22.707,76.199,23.066z M83.216,2.773c0.575,0,0.863,0.253,0.863,0.755
		c0,0.504-0.288,0.756-0.863,0.756h-3.778c-0.288,1.079-0.685,2.051-1.187,2.914h3.238c0.432,0,0.827,0.181,1.188,0.54
		c0.359,0.361,0.54,0.755,0.54,1.188v10.902c0,0.432-0.181,0.828-0.54,1.188c-0.36,0.36-0.756,0.539-1.188,0.539h-6.476
		c-0.432,0-0.828-0.179-1.188-0.539c-0.361-0.359-0.54-0.756-0.54-1.188V8.926c0-0.432,0.179-0.827,0.54-1.188
		c0.359-0.359,0.755-0.54,1.188-0.54h1.619c0.575-1.15,0.863-2.122,0.863-2.914h-3.994c-0.577,0-0.864-0.251-0.864-0.756
		c0-0.502,0.287-0.755,0.864-0.755H83.216z M74.796,9.573v1.835h6.908V9.573c0-0.575-0.288-0.864-0.863-0.864H75.66
		C75.083,8.709,74.796,8.998,74.796,9.573z M74.796,15.618h6.908v-2.699h-6.908V15.618z M74.796,19.18
		c0,0.577,0.287,0.864,0.863,0.864h5.181c0.575,0,0.863-0.287,0.863-0.864v-2.051h-6.908V19.18z M79.33,22.851
		c0.216-0.359,0.647-0.396,1.295-0.108c1.223,0.577,2.267,1.295,3.131,2.159c0.574,0.647,0.61,1.188,0.107,1.619
		c-0.432,0.286-0.9,0.179-1.403-0.324c-0.863-0.793-1.764-1.511-2.698-2.159C79.185,23.679,79.041,23.282,79.33,22.851z"/>
	<path fill="#FFFFFF" d="M101.674,12.056c0.647,0.648,0.972,1.403,0.972,2.267c0,0.864-0.324,1.619-0.972,2.268
		c-0.72,0.72-1.511,1.079-2.375,1.079c-0.863,0-1.656-0.359-2.374-1.079c-0.648-0.648-0.972-1.403-0.972-2.268
		c0-0.863,0.323-1.619,0.972-2.267c0.718-0.718,1.511-1.079,2.374-1.079C100.163,10.977,100.954,11.337,101.674,12.056z"/>
	<path fill="#FFFFFF" d="M124.019,1.693c0.575,0.145,0.756,0.577,0.54,1.295c-0.217,0.72-0.47,1.368-0.756,1.943h14.788
		c0.575,0,0.863,0.253,0.863,0.756c0,0.504-0.288,0.755-0.863,0.755h-10.039v4.21H136c0.432,0,0.826,0.18,1.188,0.54
		c0.359,0.361,0.54,0.755,0.54,1.188v8.959c0,1.656-0.972,2.482-2.915,2.482c-1.295,0-2.663-0.251-4.102-0.755
		c-0.504-0.287-0.685-0.648-0.54-1.08c0.144-0.432,0.503-0.575,1.08-0.432c1.15,0.361,2.194,0.54,3.13,0.54
		c0.935,0,1.403-0.359,1.403-1.079v-7.988c0-0.575-0.288-0.863-0.863-0.863h-6.369v13.385c0,0.719-0.323,1.079-0.971,1.079
		c-0.648,0-0.972-0.36-0.972-1.079V12.164h-5.938c-0.576,0-0.863,0.288-0.863,0.863v9.715c0,0.721-0.324,1.079-0.972,1.079
		s-0.972-0.358-0.972-1.079v-8.959c-0.576,0.576-1.151,1.044-1.727,1.403c-0.647,0.288-1.116,0.181-1.403-0.324
		c-0.146-0.359,0-0.719,0.432-1.079c2.445-1.655,4.497-4.102,6.153-7.34h-5.613c-0.577,0-0.863-0.251-0.863-0.755
		c0-0.503,0.286-0.756,0.863-0.756h6.261c0.359-0.791,0.683-1.655,0.972-2.591C123.155,1.838,123.514,1.623,124.019,1.693z
		 M121.428,9.681c-0.288,0.361-0.54,0.685-0.756,0.972h5.938v-4.21h-3.347C122.399,8.099,121.787,9.179,121.428,9.681z"/>
	<path fill="#FFFFFF" d="M175.292,3.097c0-0.575,0.251-0.864,0.756-0.864c0.503,0,0.756,0.289,0.756,0.864v4.426h4.317
		c0.575,0,0.863,0.253,0.863,0.755c0,0.504-0.288,0.756-0.863,0.756h-4.317v0.324c1.942,1.152,3.489,2.159,4.642,3.022
		c0.575,0.504,0.683,1.008,0.323,1.511c-0.432,0.289-0.863,0.215-1.295-0.216c-1.08-1.079-2.304-2.086-3.67-3.022v2.482
		c0,0.577-0.253,0.864-0.756,0.864c-0.505,0-0.756-0.287-0.756-0.864v-2.051c-1.079,1.225-2.412,2.304-3.994,3.238
		c-0.647,0.361-1.116,0.361-1.403,0c-0.288-0.431-0.216-0.791,0.217-1.079c2.374-1.366,4.102-2.77,5.181-4.209h-4.426
		c-0.576,0-0.863-0.251-0.863-0.756c0-0.502,0.287-0.755,0.863-0.755h4.426V3.097z M175.292,15.941c0-0.574,0.251-0.863,0.756-0.863
		c0.503,0,0.756,0.289,0.756,0.863v1.512h4.533c0.575,0,0.863,0.253,0.863,0.756c0,0.504-0.288,0.755-0.863,0.755h-4.533
		l-0.108,0.864c1.582,0.936,2.985,1.979,4.21,3.13c0.647,0.647,0.756,1.223,0.323,1.728c-0.432,0.359-0.936,0.251-1.511-0.324
		c-1.225-1.366-2.375-2.41-3.454-3.13c-0.721,1.799-2.412,3.346-5.073,4.642c-0.647,0.286-1.079,0.216-1.296-0.217
		c-0.216-0.432,0-0.792,0.648-1.079c2.949-1.438,4.461-3.309,4.533-5.613h-4.317c-0.577,0-0.864-0.251-0.864-0.755
		c0-0.503,0.287-0.756,0.864-0.756h4.533V15.941z M171.19,3.097c0.359-0.216,0.719-0.108,1.079,0.324
		c0.503,0.577,0.935,1.295,1.296,2.159c0.216,0.648,0.143,1.044-0.216,1.188c-0.505,0.289-0.901,0.108-1.188-0.54
		c-0.289-0.719-0.648-1.403-1.08-2.051C170.794,3.673,170.829,3.313,171.19,3.097z M179.826,3.636
		c0.286-0.575,0.647-0.791,1.079-0.647c0.503,0.288,0.54,0.863,0.107,1.727c-0.36,0.72-0.792,1.403-1.295,2.051
		c-0.432,0.432-0.793,0.54-1.079,0.324c-0.361-0.216-0.361-0.647,0-1.295C179.07,5.077,179.465,4.356,179.826,3.636z
		 M186.734,23.066c0.359,0.504,0.251,1.008-0.324,1.511c-1.295,0.935-2.698,1.619-4.21,2.051c-0.72,0.144-1.116-0.037-1.188-0.539
		c-0.072-0.361,0.144-0.648,0.648-0.864c1.438-0.504,2.698-1.223,3.777-2.158C186.014,22.707,186.445,22.707,186.734,23.066z
		 M193.75,2.773c0.575,0,0.864,0.253,0.864,0.755c0,0.504-0.289,0.756-0.864,0.756h-3.777c-0.289,1.079-0.685,2.051-1.188,2.914
		h3.238c0.432,0,0.826,0.181,1.188,0.54c0.359,0.361,0.539,0.755,0.539,1.188v10.902c0,0.432-0.18,0.828-0.539,1.188
		c-0.361,0.36-0.756,0.539-1.188,0.539h-6.477c-0.432,0-0.828-0.179-1.188-0.539c-0.361-0.359-0.54-0.756-0.54-1.188V8.926
		c0-0.432,0.179-0.827,0.54-1.188c0.359-0.359,0.756-0.54,1.188-0.54h1.619c0.575-1.15,0.863-2.122,0.863-2.914h-3.994
		c-0.576,0-0.863-0.251-0.863-0.756c0-0.502,0.287-0.755,0.863-0.755H193.75z M185.331,9.573v1.835h6.908V9.573
		c0-0.575-0.288-0.864-0.863-0.864h-5.182C185.617,8.709,185.331,8.998,185.331,9.573z M185.331,15.618h6.908v-2.699h-6.908V15.618z
		 M185.331,19.18c0,0.577,0.286,0.864,0.863,0.864h5.182c0.575,0,0.863-0.287,0.863-0.864v-2.051h-6.908V19.18z M189.864,22.851
		c0.216-0.359,0.647-0.396,1.296-0.108c1.223,0.577,2.267,1.295,3.13,2.159c0.575,0.647,0.61,1.188,0.108,1.619
		c-0.433,0.286-0.901,0.179-1.403-0.324c-0.864-0.793-1.765-1.511-2.699-2.159C189.72,23.679,189.576,23.282,189.864,22.851z"/>
</g>
</svg>
