<?xml version="1.0" encoding="utf-8"?>
<!-- Generator: Adobe Illustrator 15.1.0, SVG Export Plug-In . SVG Version: 6.00 Build 0)  -->
<!DOCTYPE svg PUBLIC "-//W3C//DTD SVG 1.1//EN" "http://www.w3.org/Graphics/SVG/1.1/DTD/svg11.dtd">
<svg version="1.1" id="レイヤー_1" xmlns="http://www.w3.org/2000/svg" xmlns:xlink="http://www.w3.org/1999/xlink" x="0px"
	 y="0px" width="200px" height="27px" viewBox="0 0 200 27" enable-background="new 0 0 200 27" xml:space="preserve">
<g>
	<path fill="#FFFFFF" d="M42.696,5.799c-0.577,0.577-1.26,0.864-2.051,0.864L40.537,7.85c-0.647,4.965-2.627,9.104-5.937,12.414
		c-3.167,3.167-7.556,5.073-13.169,5.721c-0.647,0-1.008-0.253-1.079-0.756c0-0.576,0.251-0.898,0.755-0.972
		c5.109-0.718,9.103-2.518,11.982-5.396c2.734-2.734,4.461-6.332,5.181-10.794c0-1.15-0.469-1.727-1.403-1.727H19.164
		c-0.577,0-0.864-0.324-0.864-0.972c0-0.647,0.287-0.971,0.864-0.971h18.458c-0.072-0.287-0.108-0.54-0.108-0.756
		c0-0.863,0.287-1.582,0.864-2.159c0.575-0.575,1.295-0.864,2.159-0.864c0.864,0,1.582,0.289,2.159,0.864
		c0.575,0.577,0.863,1.295,0.863,2.159C43.559,4.504,43.271,5.224,42.696,5.799z M42.156,2.021
		c-0.432-0.432-0.971-0.647-1.619-0.647c-0.647,0-1.187,0.216-1.619,0.647C38.486,2.453,38.27,2.993,38.27,3.64
		c0,0.648,0.216,1.188,0.647,1.619c0.432,0.432,0.972,0.648,1.619,0.648c0.648,0,1.188-0.216,1.619-0.648
		c0.432-0.432,0.648-0.971,0.648-1.619C42.804,2.993,42.588,2.453,42.156,2.021z"/>
	<path fill="#FFFFFF" d="M67.738,10.225c0.502,0.432,0.755,1.044,0.755,1.835c-0.361,3.959-1.691,7.089-3.994,9.392
		c-3.022,3.022-7.377,4.604-13.061,4.749c-0.577-0.072-0.864-0.361-0.864-0.863c0-0.505,0.287-0.793,0.864-0.863
		c5.109-0.287,8.851-1.619,11.226-3.994c2.086-2.087,3.309-4.677,3.67-7.772c0-0.791-0.54-1.188-1.619-1.188H47.013
		c-0.647,0-0.972-0.324-0.972-0.972c0-0.647,0.324-0.971,0.972-0.971H65.58C66.514,9.577,67.234,9.793,67.738,10.225z M66.875,4.18
		c0,0.648-0.288,0.972-0.863,0.972H49.064c-0.577,0-0.863-0.324-0.863-0.972c0-0.647,0.324-0.971,0.971-0.971h16.839
		C66.586,3.208,66.875,3.532,66.875,4.18z"/>
	<path fill="#FFFFFF" d="M93.429,4.504c0.432,0.288,0.61,0.72,0.54,1.295c-0.146,1.368-0.864,3.167-2.159,5.397
		c-1.08,1.872-2.375,3.707-3.886,5.505c2.23,1.225,4.172,2.482,5.829,3.778c1.366,1.079,2.375,1.979,3.022,2.698
		c0.359,0.577,0.359,1.116,0,1.619c-0.576,0.503-1.187,0.468-1.835-0.107c-1.367-1.439-2.771-2.77-4.209-3.994
		c-1.08-0.863-2.375-1.798-3.886-2.807c-2.016,1.872-3.994,3.419-5.937,4.642c-2.231,1.44-4.174,2.482-5.829,3.13
		c-0.577,0.144-0.971,0-1.187-0.432c-0.145-0.504,0-0.863,0.432-1.079c4.82-2.375,8.563-4.929,11.226-7.664
		c1.511-1.582,2.807-3.309,3.886-5.181c1.08-1.943,1.727-3.417,1.943-4.426c0-0.502-0.253-0.755-0.756-0.755H75.834
		c-0.577,0-0.864-0.324-0.864-0.972s0.287-0.972,0.864-0.972h16.191C92.601,4.18,93.067,4.288,93.429,4.504z"/>
	<path fill="#FFFFFF" d="M121.17,3.208c0.719-0.144,1.188,0.072,1.403,0.647c0.144,0.648-0.108,1.117-0.756,1.403
		c-1.009,0.361-2.879,0.793-5.613,1.295v5.721h7.988c0.575,0,0.863,0.324,0.863,0.972s-0.288,0.972-0.863,0.972h-8.096
		c-0.072,2.088-0.361,3.886-0.863,5.397c-0.505,1.583-1.188,2.771-2.052,3.562c-0.936,0.863-1.979,1.547-3.13,2.051
		c-1.225,0.503-2.628,0.899-4.21,1.188c-0.577,0-0.9-0.253-0.972-0.756c0-0.504,0.252-0.828,0.756-0.971
		c1.223-0.216,2.338-0.54,3.347-0.972c0.934-0.432,1.798-0.972,2.59-1.619c0.935-0.935,1.547-1.943,1.836-3.022
		c0.432-1.366,0.683-2.985,0.755-4.857h-12.521c-0.576,0-0.863-0.324-0.863-0.972s0.287-0.972,0.863-0.972h12.63V6.878
		c-3.6,0.577-7.017,0.936-10.255,1.08c-0.577,0-0.9-0.287-0.972-0.864c0-0.575,0.287-0.899,0.864-0.971
		c2.014-0.071,4.425-0.287,7.231-0.648C114.944,4.973,118.291,4.217,121.17,3.208z"/>
	<path fill="#FFFFFF" d="M132.181,10.548c0.502-0.143,0.898,0,1.188,0.432c0.863,1.44,1.582,3.13,2.158,5.073
		c0.144,0.647-0.037,1.079-0.539,1.295c-0.648,0.146-1.044-0.07-1.188-0.647c-0.432-1.438-1.08-3.093-1.943-4.965
		C131.641,11.233,131.749,10.837,132.181,10.548z M148.372,9.685c0.575,0.072,0.826,0.432,0.756,1.08
		c-0.648,5.326-2.089,9.104-4.318,11.334c-2.375,2.375-5.937,3.813-10.687,4.317c-0.576,0-0.9-0.216-0.971-0.647
		c-0.073-0.504,0.107-0.828,0.539-0.972c4.461-0.575,7.699-1.87,9.715-3.886c2.014-2.014,3.31-5.468,3.886-10.363
		C147.363,9.901,147.725,9.614,148.372,9.685z M138.333,9.469c0.432-0.144,0.791-0.036,1.079,0.324
		c1.296,1.727,2.194,3.491,2.699,5.289c0.144,0.647-0.037,1.079-0.54,1.296c-0.576,0.072-0.972-0.108-1.188-0.54
		c-0.647-1.943-1.44-3.706-2.374-5.29C137.793,10.046,137.901,9.685,138.333,9.469z"/>
	<path fill="#FFFFFF" d="M164.563,2.561c0.647,0.073,0.972,0.432,0.972,1.08l-0.216,1.08h10.687c2.158,0,3.166,0.971,3.022,2.915
		c-0.146,2.159-0.901,4.57-2.267,7.232c-1.152,2.304-2.447,4.175-3.887,5.613c-3.238,3.238-7.593,5.181-13.061,5.829
		c-0.577,0-0.901-0.289-0.972-0.864c0-0.504,0.251-0.792,0.756-0.863c5.108-0.791,9.03-2.554,11.766-5.289
		c2.661-2.661,4.461-6.116,5.397-10.363c0.07-0.502,0.107-0.899,0.107-1.187c0-0.719-0.432-1.08-1.295-1.08h-10.795
		c-1.225,3.743-3.419,6.549-6.584,8.419c-0.577,0.288-1.009,0.216-1.296-0.216c-0.216-0.359-0.145-0.719,0.216-1.08
		c3.454-2.375,5.506-5.792,6.153-10.254C163.412,2.814,163.844,2.49,164.563,2.561z"/>
</g>
</svg>
